# xmcd
#
# Track frame offsets:
#	150
#	15500
#	32726
#	51372
#	66611
#	83656
#	104494
#	123753
#	143943
#	156578
#	176412
#	206392
#
# Disc length: 2931 seconds
#
# Revision: 1
# Processed by: cddbd v1.5.2PL0 Copyright (c) Steve Scherf et al.
# Submitted via: audiograbber 1.83.01
#
DISCID=a50b710c
DTITLE=Sam Brown - April Moon
DYEAR=1990
DGENRE=Pop
TTITLE0=April Moon
TTITLE1=With A Liitle Love
TTITLE2=Mindworks
TTITLE3=Kissing Gate
TTITLE4=Where You Are
TTITLE5=Contradictions
TTITLE6=Once In Your Live
TTITLE7=Hynotised
TTITLE8=As One
TTITLE9=Eye For An Eye
TTITLE10=Troubled Soul
TTITLE11=SÈnvoler
EXTD=
EXTT0=
EXTT1=
EXTT2=
EXTT3=
EXTT4=
EXTT5=
EXTT6=
EXTT7=
EXTT8=
EXTT9=
EXTT10=
EXTT11=
PLAYORDER=
